PathFileType   4   (X/Y/Z)
DataRate	CameraRate	NumFrames	NumMarkers	Units	OrigDataRate	OrigDataStartFrame	OrigNumFrames
120.0	120.0	6	37	mm	120.0	1	126
Frame#	Time	midhip	hip_r	hip_l	knee_r	knee_l	ankle_r	ankle_l	midasis	asis_r	asis_l	psis_r	psis_l	epicondLat_r	epicondLat_l	epicondMed_r	epicondMed_l	malleolusLat_r	malleolusLat_l	malleolusMedv_r	malleolusMedv_l	neck	subclavicle_r	subclavicle_l	sternalnotch	xyphoidprocess	thighwand_r	thighwand_l	upperleg1_r	upperleg1_l	upperleg2_r	upperleg2_l	shankwand_r	shankwand_l	lowerleg1_r	lowerleg1_l	toe_r	toe_l
 	 	X1	Y1	Z1	X2	Y2	Z2	X3	Y3	Z3	X4	Y4	Z4	X5	Y5	Z5	X6	Y6	Z6	X7	Y7	Z7	X8	Y8	Z8	X9	Y9	Z9	X10	Y10	Z10	X11	Y11	Z11	X12	Y12	Z12	X13	Y13	Z13	X14	Y14	Z14	X15	Y15	Z15	X16	Y16	Z16	X17	Y17	Z17	X18	Y18	Z18	X19	Y19	Z19	X20	Y20	Z20	X21	Y21	Z21	X22	Y22	Z22	X23	Y23	Z23	X24	Y24	Z24	X25	Y25	Z25	X26	Y26	Z26	X27	Y27	Z27	X28	Y28	Z28	X29	Y29	Z29	X30	Y30	Z30	X31	Y31	Z31	X32	Y32	Z32	X33	Y33	Z33	X34	Y34	Z34	X35	Y35	Z35	X36	Y36	Z36	X37	Y37	Z37

	1	0.14167	-37.910	732.116	-294.456	-59.364	721.139	-234.214	-46.106	730.402	-363.522	-125.898	391.985	-229.046	62.900	424.706	-349.193	-362.036	140.041	-217.418	97.571	69.710	-347.620	17.124	794.086	-286.811	6.827	786.892	-186.383	27.422	801.280	-387.240	-144.151	834.217	-266.421	-142.337	834.433	-321.071	-133.445	394.365	-174.618	67.333	423.741	-403.504	-107.411	382.939	-273.334	62.967	393.122	-313.813	-371.728	150.723	-182.803	96.734	69.465	-384.610	-356.132	141.204	-241.235	100.925	67.425	-318.122	-120.803	1202.115	-295.289	-13.095	1144.241	-255.268	0.000	0.000	0.000	0.000	0.000	0.000	0.000	0.000	0.000	-15.195	494.665	-107.891	162.344	584.008	-350.690	-76.136	559.139	-152.465	82.811	616.311	-395.212	-86.698	472.432	-165.589	100.439	531.021	-391.564	-312.660	254.870	-111.875	113.674	192.864	-457.261	-325.812	216.958	-185.251	91.649	151.375	-386.493	-339.551	44.962	-202.202	201.296	38.648	-361.655
	2	0.15000	-29.743	733.499	-296.350	-51.447	722.359	-235.553	-37.815	731.767	-364.812	-109.807	391.680	-228.539	67.200	425.126	-349.355	-349.298	144.466	-218.319	98.333	69.788	-347.349	25.116	795.444	-287.851	14.538	788.143	-187.544	35.694	802.744	-388.157	-136.289	835.177	-267.896	-134.239	835.847	-322.605	-117.711	394.228	-174.170	71.252	423.775	-403.687	-89.719	381.293	-272.666	73.185	393.182	-312.585	-359.324	155.600	-183.942	97.061	69.468	-384.326	-343.278	145.046	-242.074	101.071	67.311	-317.833	-112.186	1203.685	-296.966	-4.693	1145.366	-256.460	0.000	0.000	0.000	0.000	0.000	0.000	0.000	0.000	0.000	-2.183	496.627	-106.906	168.849	582.552	-352.467	-64.257	559.131	-152.632	89.549	615.881	-396.594	-72.504	471.852	-165.322	108.542	530.520	-391.965	-299.617	259.408	-113.057	114.356	192.431	-457.315	-312.292	220.719	-186.093	92.530	151.380	-386.154	-333.594	47.660	-202.425	201.395	38.655	-361.156
	3	0.15833	-22.063	734.554	-298.080	-43.763	723.571	-236.712	-29.794	733.051	-365.930	-93.485	391.548	-227.978	71.177	425.534	-349.547	-336.120	149.065	-219.489	98.768	69.832	-347.170	32.873	796.749	-288.770	22.041	789.397	-188.565	43.706	804.100	-388.975	-128.648	836.118	-269.335	-126.299	837.234	-324.096	-101.827	394.225	-173.680	75.019	423.901	-403.887	-68.644	380.023	-271.783	68.877	394.420	-313.450	-346.313	160.463	-185.248	97.285	69.470	-384.139	-330.087	149.119	-243.212	101.103	67.254	-317.643	-103.602	1205.242	-298.616	3.666	1146.592	-257.457	10.662	1150.028	-333.558	-7.340	1146.985	-298.303	21.688	1065.042	-296.917	10.633	498.759	-105.821	174.882	581.173	-353.666	-52.525	559.303	-152.754	95.826	615.713	-397.580	-57.053	472.256	-164.820	110.305	530.137	-393.233	-285.689	263.439	-114.184	115.383	192.092	-457.317	-297.981	224.310	-186.964	93.385	151.481	-385.962	-326.148	51.009	-202.473	201.423	38.704	-360.694
	4	0.16667	-14.575	735.371	-300.137	-36.304	724.815	-237.690	-22.048	734.276	-366.877	-76.952	391.685	-227.372	74.866	425.915	-349.800	-322.557	153.844	-220.947	98.837	69.839	-347.082	40.411	798.024	-289.590	29.360	790.690	-189.447	51.462	805.358	-389.733	-120.887	837.034	-270.699	-118.438	838.598	-325.507	-85.779	394.442	-173.155	78.671	424.102	-404.137	-40.351	379.072	-269.869	68.118	395.847	-312.739	-332.773	165.316	-186.738	97.407	69.461	-384.052	-316.360	153.338	-244.577	101.079	67.233	-317.540	-95.012	1206.839	-300.201	12.084	1147.903	-258.357	17.623	1151.004	-334.340	0.292	1148.195	-298.861	28.909	1066.105	-297.711	23.302	501.087	-104.719	180.532	579.941	-354.310	-40.876	559.657	-152.946	101.913	615.613	-398.206	-38.953	473.841	-163.768	113.532	529.761	-393.504	-271.008	267.001	-115.246	116.855	191.826	-457.262	-283.163	227.877	-188.008	94.302	151.575	-385.938	-316.960	54.898	-202.335	201.399	38.745	-360.342
	5	0.17500	-7.218	736.115	-301.385	-29.029	726.116	-238.510	-14.531	735.457	-367.680	-60.271	392.160	-226.742	78.282	426.252	-350.131	-308.592	158.727	-222.695	98.595	69.824	-347.080	47.770	799.290	-290.335	36.531	792.049	-190.202	59.009	806.530	-390.468	-113.303	838.026	-271.975	-110.509	839.910	-326.780	-69.591	394.940	-172.609	82.204	424.347	-404.456	-21.628	379.592	-269.580	69.111	397.286	-311.052	-318.735	170.111	-188.434	97.442	69.442	-384.060	-302.076	157.667	-246.274	101.009	67.286	-317.514	-86.517	1208.472	-301.656	20.522	1149.260	-259.181	25.570	1152.182	-335.045	8.464	1149.505	-299.529	36.825	1067.325	-298.395	35.895	503.629	-103.665	185.870	578.844	-354.484	-29.291	560.218	-153.096	107.906	615.636	-398.445	-24.687	474.625	-163.675	117.491	529.225	-393.057	-255.754	270.160	-116.266	118.697	191.606	-457.181	-267.939	231.515	-189.186	95.314	151.628	-386.034	-305.890	59.168	-202.025	201.343	38.764	-360.105
	6	0.18333	0.379	737.091	-302.367	-21.882	727.485	-239.243	-7.160	736.623	-368.401	-43.525	392.999	-226.122	81.431	426.533	-350.544	-294.160	163.573	-224.691	98.171	69.820	-347.148	55.017	800.566	-291.048	43.598	793.479	-190.872	66.436	807.654	-391.225	-105.678	839.086	-273.155	-102.561	841.194	-327.924	-53.316	395.753	-172.071	85.589	424.593	-404.851	-2.565	380.622	-268.716	70.917	398.229	-310.705	-304.198	174.753	-190.333	97.421	69.433	-384.138	-287.029	161.699	-247.995	100.883	67.413	-317.550	-78.105	1210.028	-303.015	28.892	1150.785	-259.906	34.466	1153.720	-335.724	17.116	1151.026	-300.333	45.528	1068.867	-299.012	48.484	506.394	-102.693	190.971	577.834	-354.330	-17.777	561.096	-153.118	113.698	615.923	-398.379	-10.254	476.110	-163.227	121.743	528.956	-392.849	-240.133	273.003	-117.296	120.705	191.392	-457.127	-252.279	235.092	-190.501	96.278	151.704	-386.273	-292.929	63.624	-201.592	201.270	38.778	-359.955
